<svg width="47" height="57" viewBox="0 0 47 57" fill="none" xmlns="http://www.w3.org/2000/svg">
<g clip-path="url(#clip0_1_125)">
<path d="M41.9809 12.47H5.97998C4.65405 12.4702 3.38252 12.9971 2.44503 13.9348C1.50754 14.8724 0.98088 16.144 0.98088 17.47L0.97998 39.47C0.97998 40.7959 1.50664 42.0675 2.44413 43.0052C3.38162 43.9428 4.65315 44.4697 5.97908 44.47H41.9809C43.3068 44.4697 44.5783 43.9428 45.5158 43.0052C46.4533 42.0675 46.98 40.7959 46.98 39.47V17.47C46.98 16.144 46.4533 14.8724 45.5158 13.9348C44.5783 12.9971 43.3068 12.4702 41.9809 12.47ZM5.97998 14.47H41.9809C42.7761 14.4711 43.5385 14.7875 44.1007 15.3499C44.6629 15.9123 44.9791 16.6747 44.98 17.47L44.9805 19.47H2.97998L2.98048 17.47C2.98133 16.6747 3.2976 15.9122 3.85992 15.3498C4.42224 14.7874 5.18468 14.471 5.97998 14.47ZM41.9809 42.47H5.97908C5.18369 42.4691 4.42112 42.1528 3.8587 41.5904C3.29627 41.0279 2.97993 40.2654 2.97908 39.47V23.4277H44.98V39.47C44.9791 40.2652 44.6629 41.0276 44.1007 41.59C43.5385 42.1524 42.7761 42.4689 41.9809 42.47ZM15.98 32.0437V35.8963C15.9852 36.3083 15.8266 36.7056 15.539 37.0007C15.2514 37.2958 14.8583 37.4646 14.4463 37.47H9.51378C9.10173 37.4646 8.70868 37.2958 8.42105 37.0007C8.13343 36.7056 7.97478 36.3083 7.97998 35.8963V32.0437C7.97478 31.6316 8.13343 31.2344 8.42105 30.9393C8.70868 30.6441 9.10173 30.4753 9.51378 30.47H14.4463C14.8583 30.4753 15.2514 30.6441 15.539 30.9393C15.8266 31.2344 15.9852 31.6316 15.98 32.0437Z" fill="#68CC45"/>
</g>
<defs>
<clipPath id="clip0_1_125">
<rect width="46" height="56" fill="white" transform="translate(0.97998 0.469971)"/>
</clipPath>
</defs>
</svg>
