<svg width="36" height="57" viewBox="0 0 36 57" fill="none" xmlns="http://www.w3.org/2000/svg">
<g clip-path="url(#clip0_1_119)">
<path d="M33.4019 17.189L20.4019 10.0693C19.6538 9.65951 18.8269 9.45471 18 9.45471C17.1731 9.45471 16.3462 9.65951 15.5981 10.0693L2.5981 17.189C0.9961 18.0664 0 19.7477 0 21.5744V35.3657C0 37.1924 0.9961 38.8736 2.5981 39.7511L15.5981 46.8708C16.3461 47.2805 17.1731 47.4854 18 47.4854C18.8269 47.4854 19.6538 47.2805 20.4019 46.8708L33.4019 39.7511C35.0039 38.8736 36 37.1923 36 35.3656V21.5744C36 19.7477 35.0039 18.0664 33.4019 17.189ZM16.5588 11.8235C16.9992 11.5822 17.4978 11.4547 18 11.4547C18.5022 11.4547 19.0007 11.5822 19.4412 11.8235L32.4412 18.9431C32.5581 19.0071 32.6512 19.0985 32.7569 19.176L26.6175 22.6818L11.8094 14.4246L16.5588 11.8235ZM17 45.2904C16.8508 45.2373 16.6982 45.1929 16.5588 45.1166L3.5588 37.9969C2.5974 37.4702 2 36.462 2 35.3656V21.5744C2 21.3182 2.0391 21.0684 2.1013 20.8268L17 29.3345V45.2904ZM3.2432 19.1761C3.3489 19.0986 3.4419 19.0072 3.5589 18.9432L9.7371 15.5596L24.5882 23.8407L18 27.6028L3.2432 19.1761ZM34 35.3656C34 36.462 33.4026 37.4702 32.4412 37.9968L19.4412 45.1165C19.3018 45.1928 19.1492 45.2373 19 45.2904V29.3345L33.8987 20.8268C33.9609 21.0684 34 21.3181 34 21.5744V35.3656Z" fill="#68CC45"/>
</g>
<defs>
<clipPath id="clip0_1_119">
<rect width="36" height="56" fill="white" transform="translate(0 0.469971)"/>
</clipPath>
</defs>
</svg>
